REM DIRINDEX 1\2\4\18,1\2\4\19,1\2\5\20,1\2\5\21,1\2\6\22,1\2\7\23,1\2\8\24,1\2\8\25,1\2\9\26,1\2\10\27,1\3\11\28,1\3\11\29,1\3\11\30,1\3\11\31,1\3\12\32,1\3\12\33,1\3\12\34,1\3\12\35,1\3\13\36,1\3\13\37,1\3\14\38,1\3\14\39,1\3\15\40,1\3\15\41,1\3\15\42,1\3\16\43,1\3\16\44,1\3\17\45,1\3\17\46
REM DIRNAME cjc024,folder01,folder02,folder03,folder04,folder05,folder06,folder07,folder08,folder09,folder10,folder11,folder12,folder13,folder14,folder15,folder16,folder17,folder18,folder19,folder20,folder21,folder22,folder23,folder24,folder25,folder26,folder27,folder28,folder29,folder30,folder31,folder32,folder33,folder34,folder35,folder36,folder37,folder38,folder39,folder40,folder41,folder42,folder43,folder44,folder45
TITLE ""
FILE "08.mp3" MP3
  TRACK 01 AUDIO
    TITLE "0:"
    INDEX 01 00:00:00
  TRACK 02 AUDIO
    TITLE "18:cjc024_1233"
    INDEX 01 00:00:15
  TRACK 03 AUDIO
    TITLE "0:"
    INDEX 01 00:01:40
  TRACK 04 AUDIO
    TITLE "19:cjc024_1234"
    INDEX 01 00:01:68
  TRACK 05 AUDIO
    TITLE "0:"
    INDEX 01 00:03:49
  TRACK 06 AUDIO
    TITLE "18:cjc024_1235"
    INDEX 01 00:04:52
  TRACK 07 AUDIO
    TITLE "0:"
    INDEX 01 00:06:04
  TRACK 08 AUDIO
    TITLE "19:cjc024_1236"
    INDEX 01 00:06:33
  TRACK 09 AUDIO
    TITLE "0:"
    INDEX 01 00:08:26
  TRACK 10 AUDIO
    TITLE "18:cjc024_1237"
    INDEX 01 00:09:26
  TRACK 11 AUDIO
    TITLE "0:"
    INDEX 01 00:10:35
  TRACK 12 AUDIO
    TITLE "19:cjc024_1238"
    INDEX 01 00:10:61
  TRACK 13 AUDIO
    TITLE "0:"
    INDEX 01 00:12:32
  TRACK 14 AUDIO
    TITLE "18:cjc024_1239"
    INDEX 01 00:13:33
  TRACK 15 AUDIO
    TITLE "0:"
    INDEX 01 00:14:53
  TRACK 16 AUDIO
    TITLE "19:cjc024_1240"
    INDEX 01 00:15:03
  TRACK 17 AUDIO
    TITLE "0:"
    INDEX 01 00:18:05
  TRACK 18 AUDIO
    TITLE "18:cjc024_1241"
    INDEX 01 00:19:03
  TRACK 19 AUDIO
    TITLE "0:"
    INDEX 01 00:20:00
  TRACK 20 AUDIO
    TITLE "19:cjc024_1242"
    INDEX 01 00:20:28
  TRACK 21 AUDIO
    TITLE "0:"
    INDEX 01 00:22:62
  TRACK 22 AUDIO
    TITLE "18:cjc024_1243"
    INDEX 01 00:23:69
  TRACK 23 AUDIO
    TITLE "0:"
    INDEX 01 00:24:72
  TRACK 24 AUDIO
    TITLE "19:cjc024_1244"
    INDEX 01 00:25:23
  TRACK 25 AUDIO
    TITLE "0:"
    INDEX 01 00:27:10
  TRACK 26 AUDIO
    TITLE "18:cjc024_1245"
    INDEX 01 00:28:12
  TRACK 27 AUDIO
    TITLE "0:"
    INDEX 01 00:29:23
  TRACK 28 AUDIO
    TITLE "19:cjc024_1246"
    INDEX 01 00:29:46
  TRACK 29 AUDIO
    TITLE "0:"
    INDEX 01 00:31:47
  TRACK 30 AUDIO
    TITLE "18:cjc024_1247"
    INDEX 01 00:32:48
  TRACK 31 AUDIO
    TITLE "0:"
    INDEX 01 00:33:64
  TRACK 32 AUDIO
    TITLE "19:cjc024_1248"
    INDEX 01 00:34:12
  TRACK 33 AUDIO
    TITLE "0:"
    INDEX 01 00:36:05
  TRACK 34 AUDIO
    TITLE "18:cjc024_1249"
    INDEX 01 00:37:07
  TRACK 35 AUDIO
    TITLE "0:"
    INDEX 01 00:38:30
  TRACK 36 AUDIO
    TITLE "19:cjc024_1250"
    INDEX 01 00:38:55
  TRACK 37 AUDIO
    TITLE "0:"
    INDEX 01 00:40:54
  TRACK 38 AUDIO
    TITLE "18:cjc024_1251"
    INDEX 01 00:41:55
  TRACK 39 AUDIO
    TITLE "0:"
    INDEX 01 00:42:72
  TRACK 40 AUDIO
    TITLE "19:cjc024_1252"
    INDEX 01 00:43:23
  TRACK 41 AUDIO
    TITLE "0:"
    INDEX 01 00:45:43
  TRACK 42 AUDIO
    TITLE "18:cjc024_1253"
    INDEX 01 00:46:43
  TRACK 43 AUDIO
    TITLE "0:"
    INDEX 01 00:47:54
  TRACK 44 AUDIO
    TITLE "19:cjc024_1254"
    INDEX 01 00:48:06
  TRACK 45 AUDIO
    TITLE "0:"
    INDEX 01 00:49:59
  TRACK 46 AUDIO
    TITLE "18:cjc024_1255"
    INDEX 01 00:50:60
  TRACK 47 AUDIO
    TITLE "0:"
    INDEX 01 00:51:62
  TRACK 48 AUDIO
    TITLE "19:cjc024_1256"
    INDEX 01 00:52:14
  TRACK 49 AUDIO
    TITLE "0:"
    INDEX 01 00:54:74
  TRACK 50 AUDIO
    TITLE "18:cjc024_1257"
    INDEX 01 00:56:00
  TRACK 51 AUDIO
    TITLE "0:"
    INDEX 01 00:57:13
  TRACK 52 AUDIO
    TITLE "19:cjc024_1258"
    INDEX 01 00:57:39
  TRACK 53 AUDIO
    TITLE "0:"
    INDEX 01 00:59:34
  TRACK 54 AUDIO
    TITLE "18:cjc024_1259"
    INDEX 01 01:00:35
  TRACK 55 AUDIO
    TITLE "0:"
    INDEX 01 01:01:50
  TRACK 56 AUDIO
    TITLE "19:cjc024_1260"
    INDEX 01 01:02:01
  TRACK 57 AUDIO
    TITLE "0:"
    INDEX 01 01:05:05
  TRACK 58 AUDIO
    TITLE "18:cjc024_1261"
    INDEX 01 01:06:06
  TRACK 59 AUDIO
    TITLE "0:"
    INDEX 01 01:07:25
  TRACK 60 AUDIO
    TITLE "19:cjc024_1262"
    INDEX 01 01:07:53
  TRACK 61 AUDIO
    TITLE "0:"
    INDEX 01 01:09:34
  TRACK 62 AUDIO
    TITLE "18:cjc024_1263"
    INDEX 01 01:10:35
  TRACK 63 AUDIO
    TITLE "0:"
    INDEX 01 01:11:35
  TRACK 64 AUDIO
    TITLE "19:cjc024_1264"
    INDEX 01 01:11:60
  TRACK 65 AUDIO
    TITLE "0:"
    INDEX 01 01:14:00
  TRACK 66 AUDIO
    TITLE "18:cjc024_1265"
    INDEX 01 01:15:01
  TRACK 67 AUDIO
    TITLE "0:"
    INDEX 01 01:16:28
  TRACK 68 AUDIO
    TITLE "19:cjc024_1266"
    INDEX 01 01:16:54
  TRACK 69 AUDIO
    TITLE "0:"
    INDEX 01 01:19:17
  TRACK 70 AUDIO
    TITLE "18:cjc024_1267"
    INDEX 01 01:20:14
  TRACK 71 AUDIO
    TITLE "0:"
    INDEX 01 01:21:39
  TRACK 72 AUDIO
    TITLE "19:cjc024_1268"
    INDEX 01 01:21:63
  TRACK 73 AUDIO
    TITLE "0:"
    INDEX 01 01:25:29
  TRACK 74 AUDIO
    TITLE "18:cjc024_1269"
    INDEX 01 01:26:30
  TRACK 75 AUDIO
    TITLE "0:"
    INDEX 01 01:27:34
  TRACK 76 AUDIO
    TITLE "19:cjc024_1270"
    INDEX 01 01:27:61
  TRACK 77 AUDIO
    TITLE "0:"
    INDEX 01 01:29:64
  TRACK 78 AUDIO
    TITLE "18:cjc024_1271"
    INDEX 01 01:30:67
  TRACK 79 AUDIO
    TITLE "0:"
    INDEX 01 01:32:00
  TRACK 80 AUDIO
    TITLE "19:cjc024_1272"
    INDEX 01 01:32:25
  TRACK 81 AUDIO
    TITLE "0:"
    INDEX 01 01:34:06
  TRACK 82 AUDIO
    TITLE "18:cjc024_1273"
    INDEX 01 01:35:06
  TRACK 83 AUDIO
    TITLE "0:"
    INDEX 01 01:36:31
  TRACK 84 AUDIO
    TITLE "19:cjc024_1274"
    INDEX 01 01:36:60
  TRACK 85 AUDIO
    TITLE "0:"
    INDEX 01 01:38:47
  TRACK 86 AUDIO
    TITLE "18:cjc024_1275"
    INDEX 01 01:39:49
  TRACK 87 AUDIO
    TITLE "0:"
    INDEX 01 01:40:62
  TRACK 88 AUDIO
    TITLE "19:cjc024_1276"
    INDEX 01 01:41:12
  TRACK 89 AUDIO
    TITLE "0:"
    INDEX 01 01:43:03
  TRACK 90 AUDIO
    TITLE "18:cjc024_1277"
    INDEX 01 01:44:03
  TRACK 91 AUDIO
    TITLE "0:"
    INDEX 01 01:45:10
  TRACK 92 AUDIO
    TITLE "19:cjc024_1278"
    INDEX 01 01:45:36
  TRACK 93 AUDIO
    TITLE "0:"
    INDEX 01 01:46:68
  TRACK 94 AUDIO
    TITLE "18:cjc024_1279"
    INDEX 01 01:48:01
  TRACK 95 AUDIO
    TITLE "0:"
    INDEX 01 01:49:16
  TRACK 96 AUDIO
    TITLE "19:cjc024_1280"
    INDEX 01 01:49:43
  TRACK 97 AUDIO
    TITLE "0:"
    INDEX 01 01:52:18
  TRACK 98 AUDIO
    TITLE "18:cjc024_1281"
    INDEX 01 01:53:21
  TRACK 99 AUDIO
    TITLE "0:"
    INDEX 01 01:54:23
  TRACK 100 AUDIO
    TITLE "19:cjc024_1282"
    INDEX 01 01:54:46
  TRACK 101 AUDIO
    TITLE "0:"
    INDEX 01 01:56:04
  TRACK 102 AUDIO
    TITLE "18:cjc024_1283"
    INDEX 01 01:57:04
  TRACK 103 AUDIO
    TITLE "0:"
    INDEX 01 01:58:46
  TRACK 104 AUDIO
    TITLE "19:cjc024_1284"
    INDEX 01 01:59:03
  TRACK 105 AUDIO
    TITLE "0:"
    INDEX 01 02:01:64
  TRACK 106 AUDIO
    TITLE "18:cjc024_1285"
    INDEX 01 02:02:62
  TRACK 107 AUDIO
    TITLE "0:"
    INDEX 01 02:03:71
  TRACK 108 AUDIO
    TITLE "19:cjc024_1286"
    INDEX 01 02:04:19
  TRACK 109 AUDIO
    TITLE "0:"
    INDEX 01 02:05:74
  TRACK 110 AUDIO
    TITLE "18:cjc024_1287"
    INDEX 01 02:06:73
  TRACK 111 AUDIO
    TITLE "0:"
    INDEX 01 02:07:67
  TRACK 112 AUDIO
    TITLE "19:cjc024_1288"
    INDEX 01 02:08:17
  TRACK 113 AUDIO
    TITLE "0:"
    INDEX 01 02:10:20
  TRACK 114 AUDIO
    TITLE "18:cjc024_1289"
    INDEX 01 02:11:21
  TRACK 115 AUDIO
    TITLE "0:"
    INDEX 01 02:12:31
  TRACK 116 AUDIO
    TITLE "19:cjc024_1290"
    INDEX 01 02:12:56
  TRACK 117 AUDIO
    TITLE "0:"
    INDEX 01 02:14:31
  TRACK 118 AUDIO
    TITLE "18:cjc024_1291"
    INDEX 01 02:15:39
  TRACK 119 AUDIO
    TITLE "0:"
    INDEX 01 02:16:50
  TRACK 120 AUDIO
    TITLE "19:cjc024_1292"
    INDEX 01 02:17:00
  TRACK 121 AUDIO
    TITLE "0:"
    INDEX 01 02:19:52
  TRACK 122 AUDIO
    TITLE "18:cjc024_1293"
    INDEX 01 02:20:54
  TRACK 123 AUDIO
    TITLE "0:"
    INDEX 01 02:22:07
  TRACK 124 AUDIO
    TITLE "19:cjc024_1294"
    INDEX 01 02:22:33
  TRACK 125 AUDIO
    TITLE "0:"
    INDEX 01 02:24:18
  TRACK 126 AUDIO
    TITLE "18:cjc024_1295"
    INDEX 01 02:25:20
  TRACK 127 AUDIO
    TITLE "0:"
    INDEX 01 02:26:33
  TRACK 128 AUDIO
    TITLE "19:cjc024_1296"
    INDEX 01 02:26:60
  TRACK 129 AUDIO
    TITLE "0:"
    INDEX 01 02:28:53
  TRACK 130 AUDIO
    TITLE "18:cjc024_1297"
    INDEX 01 02:29:53
  TRACK 131 AUDIO
    TITLE "0:"
    INDEX 01 02:30:52
  TRACK 132 AUDIO
    TITLE "19:cjc024_1298"
    INDEX 01 02:31:03
  TRACK 133 AUDIO
    TITLE "0:"
    INDEX 01 02:33:05
  TRACK 134 AUDIO
    TITLE "18:cjc024_1299"
    INDEX 01 02:34:05
  TRACK 135 AUDIO
    TITLE "0:"
    INDEX 01 02:35:28
  TRACK 136 AUDIO
    TITLE "19:cjc024_1300"
    INDEX 01 02:35:57
  TRACK 137 AUDIO
    TITLE "0:"
    INDEX 01 02:38:03
  TRACK 138 AUDIO
    TITLE "18:cjc024_1301"
    INDEX 01 02:39:04
  TRACK 139 AUDIO
    TITLE "0:"
    INDEX 01 02:40:17
  TRACK 140 AUDIO
    TITLE "19:cjc024_1302"
    INDEX 01 02:40:45
  TRACK 141 AUDIO
    TITLE "0:"
    INDEX 01 02:43:00
  TRACK 142 AUDIO
    TITLE "18:cjc024_1303"
    INDEX 01 02:43:74
  TRACK 143 AUDIO
    TITLE "0:"
    INDEX 01 02:45:03
  TRACK 144 AUDIO
    TITLE "19:cjc024_1304"
    INDEX 01 02:45:30
  TRACK 145 AUDIO
    TITLE "0:"
    INDEX 01 02:48:44
  TRACK 146 AUDIO
    TITLE "18:cjc024_1305"
    INDEX 01 02:49:44
  TRACK 147 AUDIO
    TITLE "0:"
    INDEX 01 02:50:51
  TRACK 148 AUDIO
    TITLE "19:cjc024_1306"
    INDEX 01 02:51:05
  TRACK 149 AUDIO
    TITLE "0:"
    INDEX 01 02:52:46
  TRACK 150 AUDIO
    TITLE "18:cjc024_1307"
    INDEX 01 02:53:47
  TRACK 151 AUDIO
    TITLE "0:"
    INDEX 01 02:54:45
  TRACK 152 AUDIO
    TITLE "19:cjc024_1308"
    INDEX 01 02:54:66
  TRACK 153 AUDIO
    TITLE "0:"
    INDEX 01 02:57:37
  TRACK 154 AUDIO
    TITLE "18:cjc024_1309"
    INDEX 01 02:58:39
  TRACK 155 AUDIO
    TITLE "0:"
    INDEX 01 02:59:54
  TRACK 156 AUDIO
    TITLE "19:cjc024_1310"
    INDEX 01 03:00:02
  TRACK 157 AUDIO
    TITLE "0:"
    INDEX 01 03:01:64
  TRACK 158 AUDIO
    TITLE "18:cjc024_1311"
    INDEX 01 03:02:66
  TRACK 159 AUDIO
    TITLE "0:"
    INDEX 01 03:04:04
  TRACK 160 AUDIO
    TITLE "19:cjc024_1312"
    INDEX 01 03:04:27
  TRACK 161 AUDIO
    TITLE "0:"
    INDEX 01 03:06:01
  TRACK 162 AUDIO
    TITLE "18:cjc024_1313"
    INDEX 01 03:07:00
  TRACK 163 AUDIO
    TITLE "0:"
    INDEX 01 03:08:39
  TRACK 164 AUDIO
    TITLE "19:cjc024_1314"
    INDEX 01 03:08:72
  TRACK 165 AUDIO
    TITLE "0:"
    INDEX 01 03:11:49
  TRACK 166 AUDIO
    TITLE "18:cjc024_1315"
    INDEX 01 03:12:50
  TRACK 167 AUDIO
    TITLE "0:"
    INDEX 01 03:13:66
  TRACK 168 AUDIO
    TITLE "19:cjc024_1316"
    INDEX 01 03:14:20
  TRACK 169 AUDIO
    TITLE "0:"
    INDEX 01 03:15:74
  TRACK 170 AUDIO
    TITLE "18:cjc024_1317"
    INDEX 01 03:17:12
  TRACK 171 AUDIO
    TITLE "0:"
    INDEX 01 03:18:30
  TRACK 172 AUDIO
    TITLE "19:cjc024_1318"
    INDEX 01 03:18:53
  TRACK 173 AUDIO
    TITLE "0:"
    INDEX 01 03:21:30
  TRACK 174 AUDIO
    TITLE "18:cjc024_1319"
    INDEX 01 03:22:31
  TRACK 175 AUDIO
    TITLE "0:"
    INDEX 01 03:23:52
  TRACK 176 AUDIO
    TITLE "19:cjc024_1320"
    INDEX 01 03:24:03
  TRACK 177 AUDIO
    TITLE "0:"
    INDEX 01 03:27:07
  TRACK 178 AUDIO
    TITLE "18:cjc024_1321"
    INDEX 01 03:28:08
  TRACK 179 AUDIO
    TITLE "0:"
    INDEX 01 03:29:14
  TRACK 180 AUDIO
    TITLE "19:cjc024_1322"
    INDEX 01 03:29:39
  TRACK 181 AUDIO
    TITLE "0:"
    INDEX 01 03:31:50
  TRACK 182 AUDIO
    TITLE "18:cjc024_1323"
    INDEX 01 03:32:51
  TRACK 183 AUDIO
    TITLE "0:"
    INDEX 01 03:33:68
  TRACK 184 AUDIO
    TITLE "19:cjc024_1324"
    INDEX 01 03:34:17
  TRACK 185 AUDIO
    TITLE "0:"
    INDEX 01 03:36:06
  TRACK 186 AUDIO
    TITLE "18:cjc024_1325"
    INDEX 01 03:37:05
  TRACK 187 AUDIO
    TITLE "0:"
    INDEX 01 03:38:13
  TRACK 188 AUDIO
    TITLE "19:cjc024_1326"
    INDEX 01 03:38:38
  TRACK 189 AUDIO
    TITLE "0:"
    INDEX 01 03:40:00
  TRACK 190 AUDIO
    TITLE "18:cjc024_1327"
    INDEX 01 03:40:72
  TRACK 191 AUDIO
    TITLE "0:"
    INDEX 01 03:41:70
  TRACK 192 AUDIO
    TITLE "19:cjc024_1328"
    INDEX 01 03:42:26
  TRACK 193 AUDIO
    TITLE "0:"
    INDEX 01 03:45:22
  TRACK 194 AUDIO
    TITLE "18:cjc024_1329"
    INDEX 01 03:46:20
  TRACK 195 AUDIO
    TITLE "0:"
    INDEX 01 03:47:21
  TRACK 196 AUDIO
    TITLE "19:cjc024_1330"
    INDEX 01 03:47:45
  TRACK 197 AUDIO
    TITLE "0:"
    INDEX 01 03:49:24
  TRACK 198 AUDIO
    TITLE "18:cjc024_1331"
    INDEX 01 03:50:24
  TRACK 199 AUDIO
    TITLE "0:"
    INDEX 01 03:51:35
  TRACK 200 AUDIO
    TITLE "19:cjc024_1332"
    INDEX 01 03:51:60
  TRACK 201 AUDIO
    TITLE "0:"
    INDEX 01 03:53:61
  TRACK 202 AUDIO
    TITLE "18:cjc024_1333"
    INDEX 01 03:54:61
  TRACK 203 AUDIO
    TITLE "0:"
    INDEX 01 03:55:68
  TRACK 204 AUDIO
    TITLE "19:cjc024_1334"
    INDEX 01 03:56:24
  TRACK 205 AUDIO
    TITLE "0:"
    INDEX 01 03:57:65
  TRACK 206 AUDIO
    TITLE "18:cjc024_1335"
    INDEX 01 03:58:70
  TRACK 207 AUDIO
    TITLE "0:"
    INDEX 01 04:00:02
  TRACK 208 AUDIO
    TITLE "19:cjc024_1336"
    INDEX 01 04:00:28
  TRACK 209 AUDIO
    TITLE "0:"
    INDEX 01 04:02:33
  TRACK 210 AUDIO
    TITLE "18:cjc024_1337"
    INDEX 01 04:03:36
  TRACK 211 AUDIO
    TITLE "0:"
    INDEX 01 04:04:43
  TRACK 212 AUDIO
    TITLE "19:cjc024_1338"
    INDEX 01 04:04:69
  TRACK 213 AUDIO
    TITLE "0:"
    INDEX 01 04:07:24
  TRACK 214 AUDIO
    TITLE "18:cjc024_1339"
    INDEX 01 04:08:24
  TRACK 215 AUDIO
    TITLE "0:"
    INDEX 01 04:09:27
  TRACK 216 AUDIO
    TITLE "19:cjc024_1340"
    INDEX 01 04:09:52
  TRACK 217 AUDIO
    TITLE "0:"
    INDEX 01 04:11:26
  TRACK 218 AUDIO
    TITLE "18:cjc024_1341"
    INDEX 01 04:12:25
  TRACK 219 AUDIO
    TITLE "0:"
    INDEX 01 04:13:33
  TRACK 220 AUDIO
    TITLE "19:cjc024_1342"
    INDEX 01 04:13:56
  TRACK 221 AUDIO
    TITLE "0:"
    INDEX 01 04:15:41
  TRACK 222 AUDIO
    TITLE "18:cjc024_1343"
    INDEX 01 04:16:41
  TRACK 223 AUDIO
    TITLE "0:"
    INDEX 01 04:17:66
  TRACK 224 AUDIO
    TITLE "19:cjc024_1344"
    INDEX 01 04:18:16
  TRACK 225 AUDIO
    TITLE "0:"
    INDEX 01 04:20:44
  TRACK 226 AUDIO
    TITLE "18:cjc024_1345"
    INDEX 01 04:21:44
  TRACK 227 AUDIO
    TITLE "0:"
    INDEX 01 04:22:49
  TRACK 228 AUDIO
    TITLE "19:cjc024_1346"
    INDEX 01 04:23:00
  TRACK 229 AUDIO
    TITLE "0:"
    INDEX 01 04:25:36
  TRACK 230 AUDIO
    TITLE "18:cjc024_1347"
    INDEX 01 04:26:35
  TRACK 231 AUDIO
    TITLE "0:"
    INDEX 01 04:27:58
  TRACK 232 AUDIO
    TITLE "19:cjc024_1348"
    INDEX 01 04:28:09
  TRACK 233 AUDIO
    TITLE "0:"
    INDEX 01 04:29:61
  TRACK 234 AUDIO
    TITLE "18:cjc024_1349"
    INDEX 01 04:30:60
  TRACK 235 AUDIO
    TITLE "0:"
    INDEX 01 04:31:72
  TRACK 236 AUDIO
    TITLE "19:cjc024_1350"
    INDEX 01 04:32:20
  TRACK 237 AUDIO
    TITLE "0:"
    INDEX 01 04:34:70
  TRACK 238 AUDIO
    TITLE "18:cjc024_1351"
    INDEX 01 04:35:73
  TRACK 239 AUDIO
    TITLE "0:"
    INDEX 01 04:37:09
  TRACK 240 AUDIO
    TITLE "19:cjc024_1352"
    INDEX 01 04:37:35
  TRACK 241 AUDIO
    TITLE "0:"
    INDEX 01 04:40:16
  TRACK 242 AUDIO
    TITLE "18:cjc024_1353"
    INDEX 01 04:41:17
  TRACK 243 AUDIO
    TITLE "0:"
    INDEX 01 04:42:40
  TRACK 244 AUDIO
    TITLE "19:cjc024_1354"
    INDEX 01 04:42:66
  TRACK 245 AUDIO
    TITLE "0:"
    INDEX 01 04:44:45
  TRACK 246 AUDIO
    TITLE "18:cjc024_1355"
    INDEX 01 04:45:52
  TRACK 247 AUDIO
    TITLE "0:"
    INDEX 01 04:46:63
  TRACK 248 AUDIO
    TITLE "19:cjc024_1356"
    INDEX 01 04:47:18
  TRACK 249 AUDIO
    TITLE "0:"
    INDEX 01 04:49:66
  TRACK 250 AUDIO
    TITLE "18:cjc024_1357"
    INDEX 01 04:50:65
  TRACK 251 AUDIO
    TITLE "0:"
    INDEX 01 04:52:07
  TRACK 252 AUDIO
    TITLE "19:cjc024_1358"
    INDEX 01 04:52:35
  TRACK 253 AUDIO
    TITLE "0:"
    INDEX 01 04:55:15
  TRACK 254 AUDIO
    TITLE "18:cjc024_1359"
    INDEX 01 04:56:21
  TRACK 255 AUDIO
    TITLE "0:"
    INDEX 01 04:57:18
  TRACK 256 AUDIO
    TITLE "19:cjc024_1360"
    INDEX 01 04:57:45
  TRACK 257 AUDIO
    TITLE "0:"
    INDEX 01 04:59:66
  TRACK 258 AUDIO
    TITLE "18:cjc024_1361"
    INDEX 01 05:00:71
  TRACK 259 AUDIO
    TITLE "0:"
    INDEX 01 05:02:00
  TRACK 260 AUDIO
    TITLE "19:cjc024_1362"
    INDEX 01 05:02:31
  TRACK 261 AUDIO
    TITLE "0:"
    INDEX 01 05:05:65
  TRACK 262 AUDIO
    TITLE "18:cjc024_1363"
    INDEX 01 05:06:66
  TRACK 263 AUDIO
    TITLE "0:"
    INDEX 01 05:08:08
  TRACK 264 AUDIO
    TITLE "19:cjc024_1364"
    INDEX 01 05:08:36
  TRACK 265 AUDIO
    TITLE "0:"
    INDEX 01 05:10:32
  TRACK 266 AUDIO
    TITLE "18:cjc024_1365"
    INDEX 01 05:11:34
  TRACK 267 AUDIO
    TITLE "0:"
    INDEX 01 05:12:35
  TRACK 268 AUDIO
    TITLE "19:cjc024_1366"
    INDEX 01 05:12:69
  TRACK 269 AUDIO
    TITLE "0:"
    INDEX 01 05:14:67
  TRACK 270 AUDIO
    TITLE "18:cjc024_1367"
    INDEX 01 05:15:67
  TRACK 271 AUDIO
    TITLE "0:"
    INDEX 01 05:16:70
  TRACK 272 AUDIO
    TITLE "19:cjc024_1368"
    INDEX 01 05:17:33
  TRACK 273 AUDIO
    TITLE "0:"
    INDEX 01 05:20:01
  TRACK 274 AUDIO
    TITLE "18:cjc024_1369"
    INDEX 01 05:21:01
  TRACK 275 AUDIO
    TITLE "0:"
    INDEX 01 05:22:18
  TRACK 276 AUDIO
    TITLE "19:cjc024_1370"
    INDEX 01 05:22:53
  TRACK 277 AUDIO
    TITLE "0:"
    INDEX 01 05:24:64
  TRACK 278 AUDIO
    TITLE "18:cjc024_1371"
    INDEX 01 05:25:63
  TRACK 279 AUDIO
    TITLE "0:"
    INDEX 01 05:27:02
  TRACK 280 AUDIO
    TITLE "19:cjc024_1372"
    INDEX 01 05:27:21
  TRACK 281 AUDIO
    TITLE "0:"
    INDEX 01 05:29:00
  TRACK 282 AUDIO
    TITLE "18:cjc024_1373"
    INDEX 01 05:30:10
  TRACK 283 AUDIO
    TITLE "0:"
    INDEX 01 05:31:21
  TRACK 284 AUDIO
    TITLE "19:cjc024_1374"
    INDEX 01 05:31:46
  TRACK 285 AUDIO
    TITLE "0:"
    INDEX 01 05:33:18
  TRACK 286 AUDIO
    TITLE "18:cjc024_1375"
    INDEX 01 05:34:17
  TRACK 287 AUDIO
    TITLE "0:"
    INDEX 01 05:35:27
  TRACK 288 AUDIO
    TITLE "19:cjc024_1376"
    INDEX 01 05:35:52
  TRACK 289 AUDIO
    TITLE "0:"
    INDEX 01 05:37:69
  TRACK 290 AUDIO
    TITLE "18:cjc024_1377"
    INDEX 01 05:38:68
  TRACK 291 AUDIO
    TITLE "0:"
    INDEX 01 05:40:06
  TRACK 292 AUDIO
    TITLE "19:cjc024_1378"
    INDEX 01 05:40:30
  TRACK 293 AUDIO
    TITLE "0:"
    INDEX 01 05:42:42
  TRACK 294 AUDIO
    TITLE "18:cjc024_1379"
    INDEX 01 05:43:44
  TRACK 295 AUDIO
    TITLE "0:"
    INDEX 01 05:44:43
  TRACK 296 AUDIO
    TITLE "19:cjc024_1380"
    INDEX 01 05:44:71
  TRACK 297 AUDIO
    TITLE "0:"
    INDEX 01 05:47:22
  TRACK 298 AUDIO
    TITLE "18:cjc024_1381"
    INDEX 01 05:48:23
  TRACK 299 AUDIO
    TITLE "0:"
    INDEX 01 05:49:34
  TRACK 300 AUDIO
    TITLE "19:cjc024_1382"
    INDEX 01 05:49:60
  TRACK 301 AUDIO
    TITLE "0:"
    INDEX 01 05:52:45
  TRACK 302 AUDIO
    TITLE "18:cjc024_1383"
    INDEX 01 05:53:50
  TRACK 303 AUDIO
    TITLE "0:"
    INDEX 01 05:54:61
  TRACK 304 AUDIO
    TITLE "19:cjc024_1384"
    INDEX 01 05:55:12
  TRACK 305 AUDIO
    TITLE "0:"
    INDEX 01 05:57:73
  TRACK 306 AUDIO
    TITLE "18:cjc024_1385"
    INDEX 01 05:58:73
  TRACK 307 AUDIO
    TITLE "0:"
    INDEX 01 06:00:30
  TRACK 308 AUDIO
    TITLE "19:cjc024_1386"
    INDEX 01 06:00:56
  TRACK 309 AUDIO
    TITLE "0:"
    INDEX 01 06:02:63
  TRACK 310 AUDIO
    TITLE "18:cjc024_1387"
    INDEX 01 06:03:62
  TRACK 311 AUDIO
    TITLE "0:"
    INDEX 01 06:04:73
  TRACK 312 AUDIO
    TITLE "19:cjc024_1388"
    INDEX 01 06:05:22
  TRACK 313 AUDIO
    TITLE "0:"
    INDEX 01 06:07:48
  TRACK 314 AUDIO
    TITLE "18:cjc024_1389"
    INDEX 01 06:08:48
  TRACK 315 AUDIO
    TITLE "0:"
    INDEX 01 06:09:65
  TRACK 316 AUDIO
    TITLE "19:cjc024_1390"
    INDEX 01 06:10:15
  TRACK 317 AUDIO
    TITLE "0:"
    INDEX 01 06:13:45
  TRACK 318 AUDIO
    TITLE "18:cjc024_1391"
    INDEX 01 06:14:44
  TRACK 319 AUDIO
    TITLE "0:"
    INDEX 01 06:15:65
  TRACK 320 AUDIO
    TITLE "19:cjc024_1392"
    INDEX 01 06:16:16
  TRACK 321 AUDIO
    TITLE "0:"
    INDEX 01 06:18:54
  TRACK 322 AUDIO
    TITLE "18:cjc024_1393"
    INDEX 01 06:19:55
  TRACK 323 AUDIO
    TITLE "0:"
    INDEX 01 06:20:55
  TRACK 324 AUDIO
    TITLE "19:cjc024_1394"
    INDEX 01 06:21:05
  TRACK 325 AUDIO
    TITLE "0:"
    INDEX 01 06:23:08
  TRACK 326 AUDIO
    TITLE "18:cjc024_1395"
    INDEX 01 06:24:07
  TRACK 327 AUDIO
    TITLE "0:"
    INDEX 01 06:25:09
  TRACK 328 AUDIO
    TITLE "19:cjc024_1396"
    INDEX 01 06:25:38
  TRACK 329 AUDIO
    TITLE "0:"
    INDEX 01 06:27:64
  TRACK 330 AUDIO
    TITLE "18:cjc024_1397"
    INDEX 01 06:28:62
  TRACK 331 AUDIO
    TITLE "0:"
    INDEX 01 06:29:67
  TRACK 332 AUDIO
    TITLE "19:cjc024_1398"
    INDEX 01 06:30:20
  TRACK 333 AUDIO
    TITLE "0:"
    INDEX 01 06:31:72
  TRACK 334 AUDIO
    TITLE "18:cjc024_1399"
    INDEX 01 06:33:02
  TRACK 335 AUDIO
    TITLE "0:"
    INDEX 01 06:34:10
  TRACK 336 AUDIO
    TITLE "19:cjc024_1400"
    INDEX 01 06:34:41
  TRACK 337 AUDIO
    TITLE "0:"
    INDEX 01 06:36:22
  TRACK 338 AUDIO
    TITLE "18:cjc024_1401"
    INDEX 01 06:37:22
  TRACK 339 AUDIO
    TITLE "0:"
    INDEX 01 06:38:23
  TRACK 340 AUDIO
    TITLE "19:cjc024_1402"
    INDEX 01 06:38:53
  TRACK 341 AUDIO
    TITLE "0:"
    INDEX 01 06:40:24
  TRACK 342 AUDIO
    TITLE "18:cjc024_1403"
    INDEX 01 06:41:25
  TRACK 343 AUDIO
    TITLE "0:"
    INDEX 01 06:42:25
  TRACK 344 AUDIO
    TITLE "19:cjc024_1404"
    INDEX 01 06:42:60
  TRACK 345 AUDIO
    TITLE "0:"
    INDEX 01 06:45:23
  TRACK 346 AUDIO
    TITLE "18:cjc024_1405"
    INDEX 01 06:46:23
  TRACK 347 AUDIO
    TITLE "0:"
    INDEX 01 06:47:30
  TRACK 348 AUDIO
    TITLE "19:cjc024_1406"
    INDEX 01 06:47:55
  TRACK 349 AUDIO
    TITLE "0:"
    INDEX 01 06:49:25
  TRACK 350 AUDIO
    TITLE "18:cjc024_1407"
    INDEX 01 06:50:24
  TRACK 351 AUDIO
    TITLE "0:"
    INDEX 01 06:51:36
  TRACK 352 AUDIO
    TITLE "19:cjc024_1408"
    INDEX 01 06:51:63
  TRACK 353 AUDIO
    TITLE "0:"
    INDEX 01 06:54:36
  TRACK 354 AUDIO
    TITLE "18:cjc024_1409"
    INDEX 01 06:55:39
  TRACK 355 AUDIO
    TITLE "0:"
    INDEX 01 06:56:62
  TRACK 356 AUDIO
    TITLE "19:cjc024_1410"
    INDEX 01 06:57:21
  TRACK 357 AUDIO
    TITLE "0:"
    INDEX 01 06:59:74
  TRACK 358 AUDIO
    TITLE "18:cjc024_1411"
    INDEX 01 07:01:01
  TRACK 359 AUDIO
    TITLE "0:"
    INDEX 01 07:02:12
  TRACK 360 AUDIO
    TITLE "19:cjc024_1412"
    INDEX 01 07:02:37
  TRACK 361 AUDIO
    TITLE "0:"
    INDEX 01 07:04:46
  TRACK 362 AUDIO
    TITLE "18:cjc024_1413"
    INDEX 01 07:05:45
  TRACK 363 AUDIO
    TITLE "0:"
    INDEX 01 07:06:61
  TRACK 364 AUDIO
    TITLE "19:cjc024_1414"
    INDEX 01 07:07:13
  TRACK 365 AUDIO
    TITLE "0:"
    INDEX 01 07:09:24
  TRACK 366 AUDIO
    TITLE "18:cjc024_1415"
    INDEX 01 07:10:25
  TRACK 367 AUDIO
    TITLE "0:"
    INDEX 01 07:11:42
  TRACK 368 AUDIO
    TITLE "19:cjc024_1416"
    INDEX 01 07:11:68
  TRACK 369 AUDIO
    TITLE "0:"
    INDEX 01 07:14:09
  TRACK 370 AUDIO
    TITLE "18:cjc024_1417"
    INDEX 01 07:15:11
  TRACK 371 AUDIO
    TITLE "0:"
    INDEX 01 07:16:24
  TRACK 372 AUDIO
    TITLE "19:cjc024_1418"
    INDEX 01 07:16:51
  TRACK 373 AUDIO
    TITLE "0:"
    INDEX 01 07:18:48
  TRACK 374 AUDIO
    TITLE "18:cjc024_1419"
    INDEX 01 07:19:48
  TRACK 375 AUDIO
    TITLE "0:"
    INDEX 01 07:20:49
  TRACK 376 AUDIO
    TITLE "19:cjc024_1420"
    INDEX 01 07:20:74
  TRACK 377 AUDIO
    TITLE "0:"
    INDEX 01 07:23:34
  TRACK 378 AUDIO
    TITLE "18:cjc024_1421"
    INDEX 01 07:24:33
  TRACK 379 AUDIO
    TITLE "0:"
    INDEX 01 07:25:48
  TRACK 380 AUDIO
    TITLE "19:cjc024_1422"
    INDEX 01 07:25:74
  TRACK 381 AUDIO
    TITLE "0:"
    INDEX 01 07:28:05
  TRACK 382 AUDIO
    TITLE "18:cjc024_1423"
    INDEX 01 07:29:05
  TRACK 383 AUDIO
    TITLE "0:"
    INDEX 01 07:30:12
  TRACK 384 AUDIO
    TITLE "19:cjc024_1424"
    INDEX 01 07:30:38
  TRACK 385 AUDIO
    TITLE "0:"
    INDEX 01 07:32:50
  TRACK 386 AUDIO
    TITLE "18:cjc024_1425"
    INDEX 01 07:33:52
  TRACK 387 AUDIO
    TITLE "0:"
    INDEX 01 07:35:03
  TRACK 388 AUDIO
    TITLE "19:cjc024_1426"
    INDEX 01 07:35:27
  TRACK 389 AUDIO
    TITLE "0:"
    INDEX 01 07:37:04
  TRACK 390 AUDIO
    TITLE "18:cjc024_1427"
    INDEX 01 07:38:06
  TRACK 391 AUDIO
    TITLE "0:"
    INDEX 01 07:39:03
  TRACK 392 AUDIO
    TITLE "19:cjc024_1428"
    INDEX 01 07:39:27
  TRACK 393 AUDIO
    TITLE "0:"
    INDEX 01 07:41:22
  TRACK 394 AUDIO
    TITLE "18:cjc024_1429"
    INDEX 01 07:42:21
  TRACK 395 AUDIO
    TITLE "0:"
    INDEX 01 07:43:28
  TRACK 396 AUDIO
    TITLE "19:cjc024_1430"
    INDEX 01 07:43:56
  TRACK 397 AUDIO
    TITLE "0:"
    INDEX 01 07:46:66
  TRACK 398 AUDIO
    TITLE "18:cjc024_1431"
    INDEX 01 07:47:67
  TRACK 399 AUDIO
    TITLE "0:"
    INDEX 01 07:49:06
  TRACK 400 AUDIO
    TITLE "19:cjc024_1432"
    INDEX 01 07:49:31
  TRACK 401 AUDIO
    TITLE "0:"
    INDEX 01 07:51:44
